<?xml version="1.0" encoding="utf-8"?>
<!-- Generator: Adobe Illustrator 22.0.1, SVG Export Plug-In . SVG Version: 6.00 Build 0)  -->
<svg version="1.1" id="Layer_1" xmlns="http://www.w3.org/2000/svg" xmlns:xlink="http://www.w3.org/1999/xlink" x="0px" y="0px"
	 viewBox="0 0 35 35" style="enable-background:new 0 0 35 35;" xml:space="preserve">
<g>
	
		<polyline style="fill:none;stroke:#000000;stroke-width:0.5;stroke-linecap:round;stroke-linejoin:round;stroke-miterlimit:10;" points="
		16.2,22 13.6,24.6 13.6,30.2 	"/>
	
		<polyline style="fill:none;stroke:#000000;stroke-width:0.5;stroke-linecap:round;stroke-linejoin:round;stroke-miterlimit:10;" points="
		10.4,4.8 12.2,6.7 12.2,10.5 14.9,13.2 	"/>
	
		<polyline style="fill:none;stroke:#000000;stroke-width:0.5;stroke-linecap:round;stroke-linejoin:round;stroke-miterlimit:10;" points="
		15.4,16.7 10.7,21.5 10.7,28.2 	"/>
	
		<polyline style="fill:none;stroke:#000000;stroke-width:0.5;stroke-linecap:round;stroke-linejoin:round;stroke-miterlimit:10;" points="
		19.1,22 21.7,24.6 21.7,30.2 	"/>
	
		<polyline style="fill:none;stroke:#000000;stroke-width:0.5;stroke-linecap:round;stroke-linejoin:round;stroke-miterlimit:10;" points="
		24.9,4.8 23,6.7 23,10.5 20.4,13.2 	"/>
	
		<polyline style="fill:none;stroke:#000000;stroke-width:0.5;stroke-linecap:round;stroke-linejoin:round;stroke-miterlimit:10;" points="
		19.9,16.7 24.6,21.5 24.6,28.2 	"/>
	
		<ellipse style="fill:#FFFFFF;stroke:#000000;stroke-width:0.5;stroke-linecap:round;stroke-linejoin:round;stroke-miterlimit:10;" cx="17.6" cy="21.5" rx="3" ry="5.8"/>
	<path style="fill:#FFFFFF;stroke:#000000;stroke-width:0.5;stroke-linecap:round;stroke-linejoin:round;stroke-miterlimit:10;" d="
		M16.2,10.5H19c0.5,0,0.8-0.4,0.8-0.8V9.6c0-1.2-1-2.2-2.2-2.2h0c-1.2,0-2.2,1-2.2,2.2v0.1C15.3,10.2,15.7,10.5,16.2,10.5z"/>
	<path style="fill:#FFFFFF;stroke:#000000;stroke-width:0.5;stroke-linecap:round;stroke-linejoin:round;stroke-miterlimit:10;" d="
		M19.2,8l0.7,0.6c0.1,0.1,0.3,0.1,0.4,0l0,0c0.3-0.3,0.2-0.8-0.1-1v0c-0.3-0.3-0.8-0.2-1,0.1l0,0C19.1,7.8,19.1,7.9,19.2,8z"/>
	<path style="fill:#FFFFFF;stroke:#000000;stroke-width:0.5;stroke-linecap:round;stroke-linejoin:round;stroke-miterlimit:10;" d="
		M15.9,8l-0.7,0.6c-0.1,0.1-0.3,0.1-0.4,0l0,0c-0.3-0.3-0.2-0.8,0.1-1l0,0c0.3-0.3,0.8-0.2,1,0.1l0,0C16,7.7,16,7.9,15.9,8z"/>
	
		<ellipse style="fill:#FFFFFF;stroke:#000000;stroke-width:0.5;stroke-linecap:round;stroke-linejoin:round;stroke-miterlimit:10;" cx="17.6" cy="14.2" rx="2.2" ry="3.6"/>
	<path style="fill:#FFFFFF;stroke:#000000;stroke-width:0.5;stroke-linecap:round;stroke-linejoin:round;stroke-miterlimit:10;" d="
		M16.8,14.7c0,0-3.8,13.9-14.3,12.6C-1.8,26.9,7.6,16,16.8,11V14.7z"/>
	<path style="fill:#FFFFFF;stroke:#000000;stroke-width:0.5;stroke-linecap:round;stroke-linejoin:round;stroke-miterlimit:10;" d="
		M18.2,14.7c0,0,3.8,13.9,14.3,12.6C36.8,26.9,27.4,16,18.2,11V14.7z"/>
</g>
<g>
</g>
<g>
</g>
<g>
</g>
<g>
</g>
<g>
</g>
<g>
</g>
</svg>
