<?xml version="1.0" encoding="utf-8"?>
<!-- Generator: Adobe Illustrator 22.1.0, SVG Export Plug-In . SVG Version: 6.00 Build 0)  -->
<svg version="1.1" id="Layer_1" xmlns="http://www.w3.org/2000/svg" xmlns:xlink="http://www.w3.org/1999/xlink" x="0px" y="0px"
	 viewBox="0 0 14 14" style="enable-background:new 0 0 14 14;" xml:space="preserve">
<g>
	<circle cx="7" cy="7" r="7"/>
</g>
<g>
	<path style="fill:#FFFFFF;" d="M6.8,2.7c0.4,0,0.8,0.1,1.1,0.2C8.2,3,8.5,3.2,8.7,3.4c0.2,0.2,0.4,0.4,0.5,0.7s0.2,0.6,0.2,0.9
		c0,0.3,0,0.6-0.1,0.8C9.2,6.1,9.1,6.4,9,6.6C8.8,6.8,8.6,7,8.5,7.2S8.1,7.7,7.9,7.9L6.3,9.5c0.2-0.1,0.4-0.1,0.6-0.1
		c0.2,0,0.4-0.1,0.6-0.1h1.5c0.2,0,0.3,0,0.4,0.2c0.1,0.1,0.2,0.2,0.2,0.4v1H3.9v-0.5c0-0.1,0-0.2,0.1-0.3c0-0.1,0.1-0.2,0.2-0.3
		l2.3-2.3C6.7,7.1,6.9,6.9,7,6.7c0.1-0.2,0.3-0.4,0.4-0.5C7.5,6,7.5,5.8,7.6,5.7c0-0.2,0.1-0.4,0.1-0.6c0-0.3-0.1-0.6-0.2-0.7
		S7.1,4.1,6.7,4.1c-0.1,0-0.2,0-0.4,0.1S6.2,4.3,6.1,4.3C6,4.4,5.9,4.5,5.9,4.6C5.8,4.6,5.8,4.7,5.7,4.8C5.7,5,5.6,5.1,5.5,5.2
		C5.4,5.3,5.3,5.3,5.2,5.3c0,0-0.1,0-0.1,0c0,0-0.1,0-0.1,0L4,5.1c0.1-0.4,0.2-0.7,0.3-1C4.5,3.8,4.7,3.5,5,3.3
		C5.2,3.1,5.5,3,5.8,2.9C6.1,2.8,6.5,2.7,6.8,2.7z"/>
</g>
<g>
</g>
<g>
</g>
<g>
</g>
<g>
</g>
<g>
</g>
<g>
</g>
<g>
</g>
<g>
</g>
<g>
</g>
<g>
</g>
<g>
</g>
<g>
</g>
<g>
</g>
<g>
</g>
<g>
</g>
</svg>
